<?xml version="1.0" encoding="utf-8"?>
<!-- Generator: Adobe Illustrator 26.5.2, SVG Export Plug-In . SVG Version: 6.00 Build 0)  -->
<svg version="1.1" id="Ebene_1" xmlns="http://www.w3.org/2000/svg" xmlns:xlink="http://www.w3.org/1999/xlink" x="0px" y="0px"
	 viewBox="0 0 1085.7 1085.7" style="enable-background:new 0 0 1085.7 1085.7;" xml:space="preserve">
<path d="M404.4,484l12.9,6.4c5.9,3,12.4,4.5,19.1,4.5c23.5,0,42.6-19.1,42.6-42.6v-21.4c0-35.3-28.7-64-64-64h-64.1
	c-35.3,0-64,28.7-64,64v21.4c0,23.5,19.1,42.6,42.6,42.6c6.6,0,13.1-1.5,19.1-4.5l12.9-6.4l8.4-4.2l-11.9-7.9c-4.5-3-7.1-8-7.1-13.3
	v-3.7c0-13.3,10.7-24,24-24h16c13.3,0,24,10.7,24,24v3.7c0,5.3-2.7,10.3-7.1,13.3l-11.8,7.9L404.4,484L404.4,484z M395.8,533.4
	l-12.9-6.5l-12.9,6.4c-12.6,6.3-26.5,9.6-40.5,9.6c-3.6,0-7.1-0.2-10.6-0.6v0.6c0,35.3,28.7,64,64,64h64c17.7,0,32,14.3,32,32
	s-14.3,32-32,32h160v-48v-16c0-23.7,12.9-44.4,32-55.4c9.4-5.4,20.3-8.6,32-8.6v-16c0-26.5,21.5-48,48-48c8.8,0,16,7.2,16,16v32v16
	v48c0,8.8,7.2,16,16,16s16-7.2,16-16v-99.7c0-48.2-30.8-91-76.6-106.3l-8.5-2.8c-8-2.7-12.6-11.1-10.4-19.3
	c2.2-8.2,10.3-13.2,18.6-11.6l19.9,4c89,17.8,153,95.9,153,186.6v1.1l0,0c0,123.7-100.3,224-224,224h-1.1H478.9h-0.6
	c-123.4,0-223.4-100-223.4-223.4v-0.6v-39.2c-10.1-14.6-16-32.3-16-51.4v-21.4v-1.4c-9.3-3.3-16-12.1-16-22.6c0-13.3,10.7-24,24-24
	h2.8c18-37.8,56.5-64,101.2-64h64c44.7,0,83.2,26.2,101.2,64h2.8c13.3,0,24,10.7,24,24c0,10.5-6.7,19.3-16,22.6v1.4v21.4
	c0,1.4,0,2.8-0.1,4.3c12-6.2,25.7-9.6,40.1-9.6h8c17.7,0,32,14.3,32,32c0,17.7-14.3,32-32,32h-8c-13.3,0-24,10.7-24,24v8h56.4
	c-15.2,17-24.4,39.4-24.4,64h-32c-42.3,0-78.2-27.4-91-65.3c-5.1,0.9-10.3,1.3-15.6,1.3C422.2,543,408.4,539.7,395.8,533.4
	L395.8,533.4z M318.9,414.9c8.8,0,16,7.2,16,16c0,8.8-7.2,16-16,16c-8.8,0-16-7.2-16-16C302.9,422.1,310.1,414.9,318.9,414.9z
	 M430.9,430.9c0-8.8,7.2-16,16-16c8.8,0,16,7.2,16,16c0,8.8-7.2,16-16,16C438.1,446.9,430.9,439.7,430.9,430.9z"/>
</svg>
