<?xml version="1.0" encoding="utf-8"?>
<!-- Generator: Adobe Illustrator 26.5.2, SVG Export Plug-In . SVG Version: 6.00 Build 0)  -->
<svg version="1.1" id="Ebene_1" xmlns="http://www.w3.org/2000/svg" xmlns:xlink="http://www.w3.org/1999/xlink" x="0px" y="0px"
	 viewBox="0 0 962.3 962.3" style="enable-background:new 0 0 962.3 962.3;" xml:space="preserve">
<path d="M593.6,243.5l-55.7,55.8l125.2,125.2l55.7-55.7c21.9-21.9,21.9-57.3,0-79.2l-46-46.1C650.9,221.6,615.5,221.6,593.6,243.5
	L593.6,243.5z M513.2,319.8l-9.2,2.8l-144.1,43.2c-19.9,6-35.7,21.2-42.3,41L229,671c-3.8,11.3-1,23.9,7.3,32.4l153.6-153.5
	c-3-6.3-4.7-13.3-4.7-20.7c0-26.5,21.5-48,48-48s48,21.5,48,48c0,26.5-21.5,48-48,48c-7.4,0-14.4-1.7-20.7-4.7L258.9,726.1
	c8.6,8.3,21.1,11.2,32.4,7.3l264.3-88.6c19.7-6.6,35-22.4,41-42.3l43.2-144.1l2.8-9.2L513.2,319.8z"/>
</svg>
