<?xml version="1.0" encoding="utf-8"?>
<!-- Generator: Adobe Illustrator 26.5.2, SVG Export Plug-In . SVG Version: 6.00 Build 0)  -->
<svg version="1.1" id="Ebene_1" xmlns="http://www.w3.org/2000/svg" xmlns:xlink="http://www.w3.org/1999/xlink" x="0px" y="0px"
	 viewBox="0 0 657.8 657.8" style="enable-background:new 0 0 657.8 657.8;" xml:space="preserve">
<style type="text/css">
	.st0{fill:#FFFFFF;}
</style>
<g>
	<path class="st0" d="M575.7,396.6c-26-13.1-52.9-21.3-81-24.2c-20.4-2.1-39.3-7.1-55.4-20.1c-23.5-19.1-36.3-43.1-33.1-74.1
		c1.8-17,8.3-32.6,19.3-45.4c12.3-14.4,26.3-27.3,39.5-40.9c2.2-2.3,4.6-4.5,7.5-7.2c-11.6,0-22.1,0-32.5,0
		c-37.3-0.2-72.8,7.7-105.6,25.6c-59.2,32.2-99.3,81.4-125.2,142.9c-4.4,10.5-7.4,21.6-11.1,32.8c-28.6-3.1-56.1-11-81.6-26.2
		c-5.1,8.5-10,16.8-15.1,25.3c1.9,1.1,3.4,2.1,5,3c34.1,19.4,71.1,27.5,109.9,29c40.1,1.6,79.8-3.4,119.5-8.4
		c35.5-4.5,71-9.3,106.9-9.8c33.2-0.4,65.8,3,97.3,14.4c7.6,2.8,15,6.1,22.9,9.3C567,414,571.2,405.6,575.7,396.6z M110.5,443.8
		c2.5,1.6,4.5,3,6.7,4.3c17.3,10,36.3,14.8,55.9,17.1c33.7,4,67.2,1.1,100.7-2.4c40.6-4.2,81-9.7,121.6-13c36.3-3,72.6-2.9,106.8,14
		c4.8-8.5,9.4-16.9,14.3-25.6c-2.2-1.2-4-2.1-5.7-3c-23.6-11.4-48.8-15.1-74.6-16c-39.6-1.4-78.7,4.1-118,8.3
		c-34.6,3.7-69.2,7.5-103.9,9.5c-30.1,1.7-60-0.6-87.1-17.4C121.6,427.7,116.2,435.6,110.5,443.8z"/>
	<path d="M575.7,396.6c-4.5,8.9-8.7,17.4-13,26c-7.9-3.2-15.3-6.5-22.9-9.3c-31.4-11.4-64.1-14.8-97.3-14.4
		c-35.9,0.5-71.4,5.2-106.9,9.8c-39.7,5-79.3,10-119.5,8.4c-38.8-1.5-75.8-9.7-109.9-29c-1.6-0.9-3.1-1.8-5-3
		c5.1-8.6,10-16.8,15.1-25.3c25.6,15.2,53,23.1,81.6,26.2c3.7-11.1,6.7-22.3,11.1-32.8c25.8-61.5,66-110.7,125.2-142.9
		c32.8-17.9,68.3-25.8,105.6-25.6c10.4,0.1,20.9,0,32.5,0c-2.9,2.8-5.3,5-7.5,7.2c-13.3,13.5-27.2,26.5-39.5,40.9
		c-11,12.8-17.5,28.4-19.3,45.4c-3.2,31,9.6,55,33.1,74.1c16.1,13.1,35,18.1,55.4,20.1C522.8,375.3,549.6,383.6,575.7,396.6z
		 M227.9,387.8c63.5,0.1,124.1-13.2,186.7-17.3c-21.9-20.6-35.3-44.2-38.1-73c-2.8-28.7,6-54.5,22.6-79.2
		c-41.1,8.7-74.4,28.4-102.8,56.7C264.6,306.6,241,343.4,227.9,387.8z"/>
	<path d="M110.5,443.8c5.7-8.2,11.2-16.1,16.7-24.1c27.1,16.8,57,19.1,87.1,17.4c34.7-2,69.3-5.8,103.9-9.5
		c39.2-4.2,78.4-9.6,118-8.3c25.8,0.9,51.1,4.6,74.6,16c1.8,0.9,3.5,1.8,5.7,3c-4.9,8.7-9.6,17.1-14.3,25.6
		c-34.2-17-70.5-17-106.8-14c-40.6,3.4-81.1,8.8-121.6,13c-33.5,3.5-67,6.4-100.7,2.4c-19.7-2.3-38.6-7.1-55.9-17.1
		C115,446.9,113,445.4,110.5,443.8z"/>
	<path class="st0" d="M227.9,387.8c13.1-44.5,36.7-81.2,68.3-112.8c28.4-28.3,61.7-48.1,102.8-56.7c-16.6,24.7-25.4,50.5-22.6,79.2
		c2.8,28.8,16.2,52.4,38.1,73C351.9,374.6,291.4,388,227.9,387.8z"/>
</g>
</svg>
